Coordinates
version=1
nRows=4
nColumns=107
inDegrees=yes

Units are S.I. units (second, meters, Newtons, ...)
If the header above contains a line with 'inDegrees', this indicates whether rotational values are in degrees (yes) or radians (no).

endheader
time	sternoclavicular_r2	sternoclavicular_r3	unrotscap_r3	unrotscap_r2	acromioclavicular_r2	acromioclavicular_r3	acromioclavicular_r1	unrothum_r1	unrothum_r3	unrothum_r2	elv_angle	shoulder_elv	shoulder1_r2	shoulder_rot	elbow_flexion	pro_sup	deviation	flexion	proximal_distal_r1	proximal_distal_r3	cmc_flexion	cmc_abduction	mp_flexion	ip_flexion	mcp2_flexion	mcp2_abduction	pm2_flexion	md2_flexion	mcp3_flexion	mcp3_abduction	pm3_flexion	md3_flexion	mcp4_flexion	mcp4_abduction	pm4_flexion	md4_flexion	mcp5_flexion	mcp5_abduction	pm5_flexion	md5_flexion	bicpt_tx	bicpt_ty	bicpt_tz	bicpt2_tx	bicpt2_ty	bicpt2_tz	ptpt_tx	ptpt_ty	ptpt_tz	FCUpt_tx	FCUpt_ty	FCUpt_tz	EDCpt_tx	EDCpt_ty	EDCpt_tz	APLpt_tx	APLpt_ty	APLpt_tz	FPLpt_tx	FPLpt_ty	FPLpt_tz	FPLpt2_tx	FPLpt2_ty	FPLpt2_tz	PEC1pt2_tx	PEC1pt2_ty	PEC1pt2_tz	PEC1pt3_tx	PEC1pt3_ty	PEC1pt3_tz	PEC2pt2_tx	PEC2pt2_ty	PEC2pt2_tz	PEC2pt3_tx	PEC2pt3_ty	PEC2pt3_tz	PEC3pt2_tx	PEC3pt2_ty	PEC3pt2_tz	PEC3pt3_tx	PEC3pt3_ty	PEC3pt3_tz	DELT2pt2a_tx	DELT2pt2a_ty	DELT2pt2a_tz	DELT2pt2_tx	DELT2pt2_ty	DELT2pt2_tz	LAT1pt2_tx	LAT1pt2_ty	LAT1pt2_tz	LAT1pt3_tx	LAT1pt3_ty	LAT1pt3_tz	LAT2pt2_tx	LAT2pt2_ty	LAT2pt2_tz	LAT2pt3_tx	LAT2pt3_ty	LAT2pt3_tz	LAT3pt2_tx	LAT3pt2_ty	LAT3pt2_tz	LAT3pt3_tx	LAT3pt3_ty	LAT3pt3_tz
      1.33333333	     -0.32958998	      0.13959876	     -0.13959876	      0.32958998	     -0.06673527	      0.53933095	      0.24242555	     -0.24242555	     -0.53933095	      0.06673527	     98.06246682	     78.03335715	     -1.71151292	    -15.11053354	     28.03208284	     28.03653258	      0.07081727	     -0.84454076	      0.09200439	     -0.42227038	     12.69053877	    -17.13510565	     -9.01505243	     -6.86749434	     22.37562073	      6.30574366	     28.18512452	    -15.51268182	     23.15489684	      0.37380873	     21.44773524	     19.82725853	     23.75269862	     -2.18849006	     11.00500798	     23.78958983	     21.54181643	     -4.48667177	      5.20112514	      5.01676929	      0.00082721	     -0.03081291	     -0.00481751	      0.01638835	     -0.01781505	     -0.00864682	      0.00547842	     -0.06623952	     -0.00230849	      0.00659786	     -0.18372361	     -0.00024760	     -0.00336438	      0.00091567	      0.00019352	      0.00026680	      0.00010672	      0.00053359	      0.00034150	      0.00102450	      0.00057628	      0.00002848	     -0.00022779	     -0.00027335	      0.00255776	      0.00897384	      0.00624267	     -0.00836692	      0.02020199	     -0.01916154	      0.00255776	      0.00897384	      0.00624267	      0.00056357	      0.01872802	     -0.00984088	      0.00401795	      0.00499024	      0.01613623	      0.00000000	      0.00814634	      0.00000000	     -0.00732647	     -0.03385784	     -0.00671901	      0.01079489	     -0.00028674	     -0.00179677	     -0.00091039	      0.01525987	     -0.00624267	      0.00251441	      0.02202277	     -0.01820780	     -0.00611262	      0.01322233	     -0.00559240	     -0.01274546	      0.02791862	     -0.03125672	     -0.02393025	      0.01478300	     -0.00749988	     -0.01586680	      0.03225381	     -0.03906006
      1.36666667	     -0.32951970	      0.13956899	     -0.13956899	      0.32951970	     -0.06672104	      0.53921595	      0.24237386	     -0.24237386	     -0.53921595	      0.06672104	     98.06853827	     78.01671886	     -1.71161889	    -15.24608108	     28.09880155	     27.77230579	      0.06670646	     -0.84655103	      0.08688790	     -0.42327552	     13.65368741	    -17.17031162	     -8.46151133	     -6.57371746	     22.47730163	      6.46452214	     28.04978457	    -15.57610991	     23.15872474	      0.48053510	     21.22758220	     19.66500980	     23.44722956	     -2.05361120	     10.74328952	     23.61020019	     21.17652790	     -4.63232652	      4.98172195	      4.96509337	      0.00082942	     -0.03082055	     -0.00481875	      0.01638054	     -0.01783318	     -0.00867054	      0.00549794	     -0.06622690	     -0.00228721	      0.00657224	     -0.18372820	     -0.00024332	     -0.00333267	      0.00090591	      0.00019369	      0.00026598	      0.00010639	      0.00053197	      0.00034046	      0.00102137	      0.00057452	      0.00002662	     -0.00023778	     -0.00028533	      0.00255722	      0.00897193	      0.00624134	     -0.00836513	      0.02019768	     -0.01915745	      0.00255722	      0.00897193	      0.00624134	      0.00056345	      0.01872403	     -0.00983878	      0.00401733	      0.00498918	      0.01613476	      0.00000000	      0.00814284	      0.00000000	     -0.00732491	     -0.03385062	     -0.00671610	      0.01088186	     -0.00029062	     -0.00183291	     -0.00091020	      0.01525662	     -0.00624134	      0.00251387	      0.02201807	     -0.01820392	     -0.00611131	      0.01321951	     -0.00559120	     -0.01274274	      0.02791267	     -0.03125006	     -0.02392515	      0.01477985	     -0.00749828	     -0.01586341	      0.03224694	     -0.03905174
      1.40000000	     -0.32912971	      0.13940381	     -0.13940381	      0.32912971	     -0.06664207	      0.53857777	      0.24208700	     -0.24208700	     -0.53857777	      0.06664207	     98.12065797	     77.92438382	     -1.71252855	    -15.50367482	     28.05259965	     26.69335729	      0.04169362	     -0.88795611	      0.05516162	     -0.44397805	     13.61851234	    -17.65906430	     -7.58400613	     -4.28629946	     22.53311038	      5.83044791	     26.25612825	    -16.66181448	     23.45778551	      0.04794479	     18.88732962	     17.37177262	     23.20697927	     -1.87936208	      8.70163609	     21.49919798	     19.85267290	     -4.66433085	      3.61518225	      4.99646110	      0.00082789	     -0.03081526	     -0.00481789	      0.01634701	     -0.01782063	     -0.00876640	      0.00557766	     -0.06617535	     -0.00220029	      0.00646787	     -0.18374674	     -0.00022529	     -0.00320320	      0.00086627	      0.00019397	      0.00024822	      0.00009929	      0.00049644	      0.00031772	      0.00095317	      0.00053616	      0.00002669	     -0.00023745	     -0.00028494	      0.00255419	      0.00896131	      0.00623396	     -0.00835523	      0.02017377	     -0.01913478	      0.00255419	      0.00896131	      0.00623396	      0.00056279	      0.01870187	     -0.00982714	      0.00401390	      0.00498327	      0.01612661	      0.00000000	      0.00812343	      0.00000000	     -0.00731624	     -0.03381055	     -0.00670000	      0.01104644	     -0.00029803	     -0.00190251	     -0.00090912	      0.01523856	     -0.00623396	      0.00251090	      0.02199201	     -0.01818237	     -0.00610408	      0.01320387	     -0.00558459	     -0.01272766	      0.02787964	     -0.03121307	     -0.02389683	      0.01476235	     -0.00748941	     -0.01584464	      0.03220877	     -0.03900552
      1.43333333	     -0.32905423	      0.13937184	     -0.13937184	      0.32905423	     -0.06662679	      0.53845427	      0.24203149	     -0.24203149	     -0.53845427	      0.06662679	     98.27619406	     77.90651394	     -1.71524316	    -15.66659627	     27.87776685	     26.43613184	      0.03879956	     -0.89312484	      0.05142431	     -0.44656242	     15.31451705	    -17.81288749	     -6.71163276	     -3.94729637	     22.28717121	      6.13866168	     25.85354626	    -16.81890912	     22.67933762	      0.19289864	     18.42712542	     17.22482171	     22.39203309	     -1.76551479	      8.19658506	     21.31451984	     19.29866102	     -4.77880894	      3.31115675	      4.93774070	      0.00082211	     -0.03079522	     -0.00481467	      0.01633862	     -0.01777313	     -0.00878902	      0.00559667	     -0.06616306	     -0.00217957	      0.00644304	     -0.18375110	     -0.00022086	     -0.00317233	      0.00085687	      0.00019394	      0.00024578	      0.00009831	      0.00049156	      0.00031460	      0.00094379	      0.00053088	      0.00002307	     -0.00025257	     -0.00030308	      0.00255360	      0.00895926	      0.00623253	     -0.00835332	      0.02016915	     -0.01913039	      0.00255360	      0.00895926	      0.00623253	      0.00056266	      0.01869758	     -0.00982489	      0.00401323	      0.00498213	      0.01612503	      0.00000000	      0.00811968	      0.00000000	     -0.00731456	     -0.03380280	     -0.00669689	      0.01115008	     -0.00030273	     -0.00194713	     -0.00090891	      0.01523506	     -0.00623253	      0.00251032	      0.02198697	     -0.01817820	     -0.00610268	      0.01320084	     -0.00558330	     -0.01272474	      0.02787324	     -0.03120591	     -0.02389135	      0.01475897	     -0.00748769	     -0.01584100	      0.03220139	     -0.03899657
